<svg width="22" height="22" viewBox="0 0 22 22" fill="none" xmlns="http://www.w3.org/2000/svg">
<path d="M11.775 21.9376C11.8915 21.9705 12.0493 21.99 12.2484 21.9973C12.4475 22.0045 12.7029 21.9973 13.0135 21.9772C13.3152 21.9571 13.57 21.9298 13.7786 21.8958C13.9866 21.8618 14.1539 21.8205 14.2816 21.7714C14.4076 21.7223 14.5007 21.6655 14.5593 21.6002C14.6178 21.5355 14.6529 21.4619 14.6635 21.3794L16.1067 10.4201C16.1179 10.3381 16.1039 10.2678 16.066 10.2087C16.0281 10.1496 15.9506 10.1028 15.8335 10.0654C15.7164 10.0292 15.558 10.0041 15.3584 9.99346C15.1587 9.98231 14.9033 9.98733 14.5916 10.008C14.2816 10.0286 14.0245 10.057 13.8215 10.095C13.618 10.1329 13.4529 10.1786 13.3263 10.2316C13.1997 10.2846 13.1066 10.3437 13.0486 10.4089C12.9901 10.4742 12.9555 10.5472 12.9449 10.6292L11.5023 21.5891C11.4911 21.671 11.5051 21.7419 11.543 21.7999C11.5815 21.8584 11.6584 21.9047 11.775 21.9376Z" fill="#242748"/>
<path d="M16.7375 8.28701C16.824 8.07344 16.8853 7.81469 16.9221 7.51022C16.96 7.21467 16.9645 6.96652 16.9372 6.76409C16.9098 6.56167 16.8345 6.40051 16.7113 6.27783C16.5881 6.15571 16.4124 6.07373 16.1843 6.03135C15.9568 5.98953 15.6657 5.98061 15.3116 6.00403C14.9525 6.02801 14.6536 6.07596 14.4155 6.14846C14.1768 6.22151 13.9794 6.32857 13.8216 6.4691C13.6638 6.60963 13.5422 6.78473 13.4569 6.9944C13.3716 7.20351 13.3102 7.45613 13.2729 7.75168C13.2283 8.05671 13.221 8.31155 13.2534 8.51732C13.2857 8.72253 13.3621 8.88481 13.4837 9.00303C13.6058 9.12125 13.7792 9.19932 14.004 9.23779C14.2287 9.27516 14.5159 9.28352 14.8661 9.2601C15.2285 9.23612 15.5302 9.18928 15.7706 9.12069C16.0109 9.05154 16.2111 8.94949 16.37 8.81175C16.5295 8.67569 16.6516 8.50003 16.7375 8.28701Z" fill="#242748"/>
<path d="M12.8456 4.08801C13.14 3.92518 13.246 3.5549 13.082 3.26103C12.9711 3.06028 12.7642 2.94763 12.5506 2.94763C12.4502 2.94763 12.3487 2.97217 12.255 3.02459C10.9362 3.75566 10.0016 4.93897 9.62242 6.35594C9.25437 7.72941 9.45959 9.16255 10.1979 10.3888C10.3117 10.5784 10.5135 10.6838 10.7199 10.6838C10.8269 10.6838 10.9351 10.6554 11.0333 10.5963C11.321 10.4234 11.4136 10.0486 11.2407 9.7609C10.6741 8.82016 10.5169 7.72161 10.7979 6.67045C11.0907 5.57524 11.8173 4.65792 12.8456 4.08801Z" fill="#242748"/>
<path d="M11.5161 1.64779C11.9405 1.41246 12.0938 0.877128 11.8585 0.452762C11.6232 0.0283968 11.0879 -0.124955 10.6635 0.11037C8.47809 1.32268 6.87654 3.31904 6.26982 5.58697C5.72556 7.62181 6.01052 9.71353 7.07171 11.4779C7.32209 11.8939 7.86189 12.0283 8.27789 11.7779C8.69389 11.5275 8.82828 10.9877 8.5779 10.5717C7.76486 9.22001 7.54794 7.61121 7.96784 6.04145C8.45188 4.23135 9.74505 2.63035 11.5161 1.64779Z" fill="#242748"/>
</svg>
